<svg width="200" height="100" viewBox="0 0 200 100" fill="none" xmlns="http://www.w3.org/2000/svg">
<path d="M43.5832 0H27.545C24.744 0 22.473 8.24488 22.473 18.415V81.3303C22.473 91.4984 24.744 99.7433 27.545 99.7433H43.5832C46.3845 99.7433 48.6552 91.4984 48.6552 81.3303V18.415C48.6552 8.24488 46.3842 0 43.5832 0ZM40.9061 57.9709L44.5458 96.9736L35.8574 72.4631L27.4629 96.7597L30.809 58.8235L23.06 37.5104H32.6876L35.74 2.7707L38.9687 37.5104H48.0091L40.9061 57.9709V57.9709ZM105.91 99.998C102.642 99.998 99.992 90.3789 99.992 78.5138V23.5113C99.992 11.6461 102.642 2.0271 105.91 2.0271H120.54V28.3834H107.8V37.8333H120.54V64.1917H107.8V73.6416H120.54V100L105.91 99.998V99.998ZM73.2703 23.5113C73.2703 11.6461 70.6209 2.0271 67.3526 2.0271H51.2157V100H59.0242V28.3824H65.4626V100H73.2708L73.2703 23.5113V23.5113ZM5.91761 100C2.64964 100 0 90.382 0 78.5158V23.5082C0 11.6431 2.64964 2.02302 5.91761 2.02302H20.2744V28.3824H7.80849V73.6416H20.2747V100H5.91761ZM72.9328 2.02302H81.0154L86.3578 61.7052L91.8374 2.02302H99.9197L90.8785 100H81.8372L72.9328 2.02302ZM163.878 99.998C167.146 99.998 169.796 90.3789 169.796 78.5138V59.3185C169.796 47.4544 167.146 37.8354 163.878 37.8354L155.686 37.8333V28.3834H168.838V2.02608H153.797C150.529 2.02608 147.879 11.6451 147.879 23.5102V42.7035C147.879 54.5686 150.529 64.1887 153.797 64.1887H162.126V73.6406H147.878V100L163.878 99.998V99.998ZM192.676 100L178.046 99.998C174.778 99.998 172.129 90.3789 172.129 78.5138V23.5113C172.129 11.6461 174.778 2.0271 178.046 2.0271H192.676V28.3834H179.936V37.8333H192.676V64.1917H179.936V73.6416H192.676V100ZM141.31 62.8053C143.545 59.7352 145.134 51.8926 145.134 42.7045V23.5113C145.134 11.6461 142.484 2.0271 139.217 2.0271H123.354V100H131.162V44.2976L138.148 100H146.094L141.31 62.8053ZM137.599 37.761H131.16V28.3111H137.599V37.761ZM199.219 6.3879C198.699 4.50545 198.068 3.56524 197.33 3.56524C196.597 3.56524 195.97 4.50647 195.452 6.3879C194.932 8.27748 194.671 10.5552 194.671 13.2189C194.671 15.9091 194.93 18.2001 195.445 20.0896C195.963 21.9884 196.592 22.9378 197.33 22.9378C198.069 22.9378 198.699 21.9874 199.219 20.0896C199.74 18.1909 200 15.9 200 13.2189C200 10.546 199.74 8.26831 199.219 6.3879ZM198.954 19.1525C198.508 20.7884 197.967 21.6064 197.33 21.6064C196.693 21.6064 196.152 20.7884 195.707 19.1525C195.264 17.5176 195.042 15.5394 195.042 13.2189C195.042 10.9147 195.265 8.9508 195.71 7.32403C196.158 5.68911 196.698 4.87114 197.33 4.87114C197.965 4.87114 198.506 5.68911 198.954 7.32403C199.4 8.9508 199.622 10.9147 199.622 13.2189C199.622 15.5394 199.4 17.5176 198.954 19.1525V19.1525Z" fill="black"/>
</svg>
