<svg width="200" height="100" viewBox="0 0 200 100" fill="none" xmlns="http://www.w3.org/2000/svg">
<g clip-path="url(#clip0_7_19)">
<path fill-rule="evenodd" clip-rule="evenodd" d="M0 0H200V100H0V0Z" fill="white"/>
<path fill-rule="evenodd" clip-rule="evenodd" d="M82.1961 43.2879L91.9598 42.8568L101.579 42.4256L92.5336 48.7435L91.9587 48.4561L82.1961 43.2879V43.2879ZM91.9598 37.3296C64.6797 38.2629 53.3368 34.9608 80.4737 27.2432L6.45893 36.2884C6.45893 36.2884 30.2206 38.4061 44.5786 40.4164C58.9367 42.4262 79.3241 47.4517 85.3545 57.3222H104.45C104.45 40.129 149.534 36.0009 163.316 34.1343L191.603 30.8322L197.058 26.3094C197.058 26.3094 152.691 32.124 124.838 34.9239C112.563 36.2168 101.292 37.0422 91.9598 37.3296V37.3296ZM57.7154 56.7479C53.4084 56.7479 50.4648 57.897 48.1676 59.3325L45.3682 61.0196V56.7479H35.6772C31.3702 56.7479 28.355 57.897 26.0578 59.3325L2.94049 73.6185H16.7248L34.816 62.6346C37.6154 60.768 39.0514 61.0549 40.7749 61.0549H45.3693L25.0534 73.6185H38.764L56.8553 62.6346C59.7273 60.768 61.1623 61.0549 62.8857 61.0549H67.4801L46.8042 73.6185H61.8803C65.3977 73.6185 67.4801 72.3267 67.4801 70.8543V56.7479H57.7154V56.7479ZM187.224 71.9313C187.51 71.9313 187.726 71.8961 187.726 71.7155C187.726 71.5729 187.439 71.536 187.151 71.536H186.578V71.9313H187.224ZM187.152 71.2497C188.013 71.2497 188.515 71.357 188.515 71.7524C188.515 72.0756 188.156 72.183 187.654 72.2182L188.588 72.9368H187.726L187.151 72.4341L186.936 72.2182H186.577V72.9368H185.858V71.2497H187.152V71.2497ZM187.152 73.6906H187.081C185.429 73.6906 183.922 73.1163 183.922 72.1108C183.922 71.1054 185.429 70.4958 187.081 70.4958H187.152C188.803 70.5311 190.311 71.106 190.311 72.1108C190.311 73.0805 188.803 73.6906 187.152 73.6906ZM187.152 70.8906C188.372 70.8906 189.377 71.3934 189.377 72.1108C189.377 72.8294 188.372 73.2952 187.152 73.3321H187.081C185.859 73.3321 184.783 72.8294 184.783 72.1108C184.783 71.357 185.859 70.8906 187.081 70.8906H187.152ZM167.768 70.9628H169.851C171 70.9628 171.718 70.5311 171.718 69.7415V64.9318C171.718 64.1059 171.001 63.7116 169.851 63.7116H165.759C164.61 63.7116 163.892 64.1059 163.892 64.9318V69.7415C163.892 70.5306 164.609 70.9628 165.759 70.9628H167.768V70.9628ZM167.768 61.0554H176.024C178.609 61.0554 180.905 61.9887 180.905 63.2815V71.3939C180.905 72.6857 178.609 73.619 176.024 73.619H159.584C156.927 73.619 154.702 72.6857 154.702 71.3939V63.2815C154.702 61.9887 156.928 61.0554 159.584 61.0554H167.768ZM94.7592 70.9986H106.103V73.619H84.3501V70.9986C84.3501 70.2095 84.9966 69.7784 85.7862 69.3836L95.4056 63.6758H83.9196V61.0554H105.671V63.6758C105.671 64.4659 105.025 64.8971 104.236 65.2919L94.7592 70.9986ZM146.233 61.0554H125.27V69.7421C125.27 70.4606 124.339 70.9633 123.333 70.9633H119.671C118.523 70.9633 117.805 70.5317 117.805 69.7421V61.0554H108.617V71.3939C108.617 72.6857 110.913 73.619 113.497 73.619H129.579C132.163 73.619 134.459 72.6857 134.459 71.3939V64.9318C134.459 64.178 135.465 63.7116 136.398 63.7116H140.06C141.206 63.7116 141.927 64.1059 141.927 64.9318V73.6185H151.114V63.281C151.114 61.9882 148.816 61.0554 146.233 61.0554V61.0554ZM76.0225 73.6185H71.7155V61.0549H80.9043V71.3934C80.9043 72.6852 78.6071 73.6185 76.0225 73.6185Z" fill="black"/>
</g>
<defs>
<clipPath id="clip0_7_19">
<rect width="200" height="100" fill="white"/>
</clipPath>
</defs>
</svg>
