<svg width="200" height="100" viewBox="0 0 200 100" fill="none" xmlns="http://www.w3.org/2000/svg">
<g clip-path="url(#clip0_7_23)">
<path fill-rule="evenodd" clip-rule="evenodd" d="M0 0H200V100H0V0Z" fill="white"/>
<path fill-rule="evenodd" clip-rule="evenodd" d="M44.3473 37.0816C34.0949 43.1016 24.2649 50.567 24.1663 56.1471C24.1279 58.2467 25.4685 60.0796 28.684 61.4678C33.3116 63.4673 38.4102 64.1723 43.484 64.1765C50.8986 64.1816 58.2612 62.686 64.026 61.5327C73.7347 59.5914 181.055 36.2889 181.055 36.2889C182.09 36.0295 181.896 35.7063 180.6 35.8676C180.077 35.933 63.7656 51.6933 63.7656 51.6933C61.5625 52.0049 59.2859 52.1678 56.9964 52.1779C48.0577 52.2043 40.1036 49.7235 40.1679 44.4956C40.1928 42.45 41.4452 39.9832 44.3473 37.0816V37.0816Z" fill="black"/>
</g>
<defs>
<clipPath id="clip0_7_23">
<rect width="200" height="100" fill="white"/>
</clipPath>
</defs>
</svg>
