<svg width="200" height="100" viewBox="0 0 200 100" fill="none" xmlns="http://www.w3.org/2000/svg">
<g clip-path="url(#clip0_7_12)">
<path fill-rule="evenodd" clip-rule="evenodd" d="M0 0H200V100H0V0Z" fill="white"/>
<path fill-rule="evenodd" clip-rule="evenodd" d="M156.864 47.7101H130.492V52.6266H156.864V47.7101Z" fill="black"/>
<path fill-rule="evenodd" clip-rule="evenodd" d="M197.059 39.6636H187.419C187.419 42.8277 182.291 45.3921 175.961 45.3921C169.634 45.3921 164.503 42.8277 164.503 39.6636L141.434 39.6356C135.755 39.6356 131.092 41.8073 130.584 44.5797L157.366 44.5792C160.177 47.1949 165.129 49.1637 171.053 49.8693V60.3364H180.654L180.656 49.9497C190.05 48.8825 197.059 44.6824 197.059 39.6636ZM108.35 39.6636H94.9408L76.615 48.4914L101.198 60.3364H114.719L90.4709 48.3238L108.35 39.6636Z" fill="black"/>
<path fill-rule="evenodd" clip-rule="evenodd" d="M126.081 55.4203C121.639 55.4203 118.595 53.9542 118.595 51.7328V39.6636H108.984L108.927 52.5701C108.927 57.0135 115.686 60.3364 124.572 60.3364H156.865L156.808 55.4203H126.081V55.4203ZM187.539 56.3796C185.551 56.3796 183.869 57.1443 183.869 58.1808C183.869 59.2277 185.551 59.9914 187.539 59.9914C189.506 59.9914 191.189 59.2272 191.189 58.1808C191.189 57.1437 189.507 56.3796 187.539 56.3796ZM187.539 59.6905C185.885 59.6905 184.594 59.0508 184.594 58.1808C184.594 57.3264 185.885 56.681 187.539 56.681C189.172 56.681 190.46 57.3258 190.46 58.1808C190.46 59.0503 189.172 59.6905 187.539 59.6905Z" fill="black"/>
<path fill-rule="evenodd" clip-rule="evenodd" d="M188.123 58.31C188.733 58.2721 189.203 58.1092 189.203 57.7372C189.203 57.3264 188.714 57.1443 187.73 57.1443H186.145V59.2277H186.775V58.3245H187.5L188.601 59.2277H189.307L188.123 58.31V58.31ZM186.775 58.0542V57.4094H187.634C188.074 57.4094 188.542 57.4571 188.542 57.7149C188.542 58.035 188.064 58.0542 187.528 58.0542H186.775ZM61.8077 39.6636C52.5338 39.6636 45.0372 43.0306 42.3551 44.7628C38.7184 41.5894 31.8776 39.4514 24.0387 39.4514C12.3877 39.4514 2.94153 44.1745 2.94153 50C2.94153 55.8255 12.3877 60.5486 24.0387 60.5486C33.8687 60.5486 42.1279 57.1873 44.4707 52.6381C49.0527 45.5426 58.5673 44.5807 62.59 44.5807H66.7248V47.6815H60.9133C55.2356 47.6815 50.5727 49.8532 50.0643 52.6261H66.7248V60.3364H76.3348V39.6636H61.8077ZM23.9598 55.7285C17.6326 55.7285 12.5028 53.1641 12.5028 50C12.5028 46.8364 17.6326 44.2715 23.9598 44.2715C30.288 44.2715 35.4168 46.8364 35.4168 50C35.4168 53.1641 30.287 55.7285 23.9598 55.7285Z" fill="black"/>
</g>
<defs>
<clipPath id="clip0_7_12">
<rect width="200" height="100" fill="white"/>
</clipPath>
</defs>
</svg>
