<svg width="140" height="50" viewBox="0 0 140 50" fill="none" xmlns="http://www.w3.org/2000/svg">
<g clip-path="url(#clip0_6_14)">
<path d="M75.1596 2.26159C74.7034 2.30851 74.2648 3.42869 73.383 4.01224C72.7382 4.43339 71.9333 4.40705 71.5057 4.92772C71.3434 5.12223 71.396 5.45427 71.2118 5.77307C70.8521 6.41068 69.5845 6.46769 69.5845 7.1624C69.58 7.91265 70.6416 8.05594 71.5605 8.58826C72.2777 9.01677 72.3479 9.31216 73.2163 9.5198C73.9578 9.68808 75.0609 9.13812 76.0544 9.33557C76.8704 9.49797 77.651 9.61491 77.8354 10.1736C77.9975 10.6884 77.8244 11.4868 76.8352 11.3947C76.5018 11.3699 75.0565 11.0452 73.2801 11.1709C71.1372 11.3333 68.6917 11.7997 68.4527 13.3925C68.3211 14.2831 69.9725 15.3332 71.5671 15.1196C72.6702 14.9748 72.1483 14.1077 72.7492 13.6864C73.5365 13.1469 77.9975 15.5701 82.145 15.5701C83.8908 15.5701 85.1891 15.2762 86.4789 14.3753C86.5994 14.3065 86.7464 14.1588 86.9328 14.15C87.1083 14.1588 87.4153 14.2743 87.5162 14.324C90.8565 16.1141 93.3809 19.7045 105.656 19.7469C107.382 19.7527 109.35 20.3026 110.955 21.2795C112.387 22.1629 113.225 23.536 114.039 24.9298C115.267 27.0212 117.469 29.0555 120.807 31.3193C120.989 31.4407 123.737 32.8652 123.957 32.9719C123.992 32.9865 124.193 33.3083 124.123 33.4881C124.042 34.8453 123.746 38.7924 128.159 38.9709C129.238 39.0074 128.955 38.5014 128.955 38.1533C128.953 37.466 128.764 36.783 129.308 36.0796C130.052 35.1115 127.731 34.6654 127.799 32.5726C127.847 31.0122 125.882 31.2783 124.884 30.0893C124.31 29.4005 123.799 29.035 123.836 28.1925C124.06 23.4513 122.323 20.3362 121.456 19.5714C120.781 18.9937 120.222 18.7641 120.84 18.4964C124.523 16.8746 125.358 15.3653 125.358 15.3653C127.317 12.2956 129.078 9.49198 131.506 8.25781C131.995 8.00324 133.249 7.37886 134.019 7.13312C136.285 6.42087 137.478 5.98953 138.136 5.56239C139.178 4.88531 140 3.47404 139.002 2.6185C137.761 1.56257 135.614 2.40057 134.666 2.77491C127.896 5.45427 126.898 10.1808 124.553 12.8952C122.682 15.064 119.64 16.6567 116.921 16.7868C114.881 16.8877 112.683 16.6128 110.495 15.9722C105.172 14.4162 102.259 12.4068 101.573 12.0515C100.143 11.3158 89.0404 4.04877 80.046 3.7519C80.046 3.7519 78.9298 2.26169 78.649 2.23681C77.9909 2.18118 77.3178 3.12741 76.8352 3.23722C76.3812 3.33799 75.618 2.21193 75.1596 2.26169M35.5631 45.6339C34.7165 45.6207 33.9972 45.1571 33.9972 44.5838L33.9994 25.876H24.7528V46.4981C24.7528 47.5087 25.9809 48.3336 27.4876 48.3336H43.6496C45.1672 48.3336 46.3801 47.5087 46.3801 46.4981V25.876H37.1423L37.1335 44.5838C37.1335 45.1571 36.414 45.6207 35.5631 45.6339M66.5226 25.876H52.5277C50.8719 25.876 49.523 26.774 49.523 27.8898V48.3335H58.7782V29.5805C58.7848 29.0058 59.4822 28.551 60.3421 28.551C61.2062 28.551 61.8992 28.9955 61.9188 29.5645V48.3336H71.137V29.5643C71.148 28.9954 71.841 28.5508 72.7029 28.5508C73.5584 28.5508 74.2646 29.0057 74.2712 29.5804V48.3336H83.5265V27.8898C83.5265 26.774 82.1755 25.876 80.5197 25.876H66.5226ZM12.3785 29.6199C12.3851 28.9954 11.6219 28.5508 10.8126 28.5508H9.24223V39.9098H10.8126C11.6285 39.9098 12.3853 39.4769 12.3785 38.8554V29.6199ZM18.5832 42.6899H9.24223V48.3336H-1.3426e-05V25.876H18.6425C20.3114 25.876 21.6141 26.7798 21.6141 27.8986V40.6674C21.6141 41.7876 20.261 42.6899 18.5832 42.6899ZM115.243 43.3114C113.385 43.3114 111.826 44.382 111.826 45.6792C111.826 46.9808 113.385 48.0425 115.302 48.0425C117.204 48.0425 118.743 46.9808 118.743 45.6792C118.743 44.379 117.204 43.3114 115.302 43.3114H115.243ZM119.406 45.6719C119.406 47.1972 117.572 48.4374 115.302 48.4374C113.008 48.4374 111.166 47.2061 111.166 45.6719C111.166 44.167 113.008 42.9093 115.234 42.9093C117.572 42.9093 119.406 44.1291 119.406 45.6719" fill="black"/>
<path d="M114.874 45.4964C115.517 45.4964 115.855 45.3443 115.855 45.0402C115.855 44.7695 115.528 44.6307 114.903 44.6307H114.719V45.4964H114.874ZM117.241 47.2718H116.138L114.719 46.0126V47.2718H113.817V44.088H114.765C116.052 44.088 116.736 44.4127 116.736 45.0328C116.736 45.4466 116.333 45.8138 115.769 45.9234L115.703 45.9396L117.241 47.2718ZM99.0439 39.9142V29.5732C99.0218 29.0013 98.331 28.5626 97.4691 28.5626C96.6159 28.5626 95.9096 29.0188 95.9032 29.5893V39.9142H99.0439ZM99.0439 48.3336V42.6958H95.9032V48.3336H86.6653V27.8898C86.6653 26.774 88.014 25.876 89.67 25.876H105.277C106.937 25.876 108.286 26.774 108.286 27.8898V48.3335L99.0439 48.3336Z" fill="black"/>
</g>
<defs>
<clipPath id="clip0_6_14">
<rect width="140" height="50" fill="white"/>
</clipPath>
</defs>
</svg>
