<svg width="200" height="100" viewBox="0 0 200 100" fill="none" xmlns="http://www.w3.org/2000/svg">
<rect width="200" height="100" fill="#1E1E1E"/>
<g clip-path="url(#clip0_0_1)">
<path fill-rule="evenodd" clip-rule="evenodd" d="M0 0H200V100H0V0Z" fill="white"/>
<path fill-rule="evenodd" clip-rule="evenodd" d="M8.82361 19.4292H28.1631L38.8792 56.2794L49.3329 19.4292H181.838L177.396 30.0141H65.5378L48.5495 78.4946H29.209L8.82361 19.4292Z" fill="black"/>
<path fill-rule="evenodd" clip-rule="evenodd" d="M185.236 64.7736C185.759 70.5228 179.226 79.2784 164.85 79.2784C148.125 79.2784 144.466 68.9556 144.466 64.6428H158.056C158.056 67.1253 162.238 69.6087 165.374 69.6087C168.51 69.6087 171.648 67.6482 171.648 66.3419C171.648 65.0345 170.602 63.0751 165.637 61.376C149.431 56.5409 145.773 50.9214 145.773 46.0867C145.25 40.337 150.738 31.8428 165.112 31.8428C179.488 31.8428 183.408 41.9053 183.408 46.0867H170.602C170.602 43.7346 167.466 42.036 164.33 42.036C161.193 42.036 159.102 43.6038 159.102 44.9112C159.102 46.218 159.625 47.3941 164.592 49.0926C171.386 50.6609 185.236 55.757 185.236 64.7736V64.7736ZM186.012 75.8814C186.563 75.881 187.108 75.9349 187.616 76.04C188.125 76.1451 188.587 76.2994 188.976 76.4939C189.365 76.6885 189.674 76.9195 189.884 77.1738C190.094 77.4281 190.202 77.7006 190.201 77.9758C190.205 78.2519 190.099 78.5257 189.89 78.7813C189.681 79.0369 189.373 79.2694 188.984 79.4652C188.594 79.6611 188.131 79.8165 187.622 79.9226C187.112 80.0286 186.565 80.0832 186.012 80.0831C185.458 80.0839 184.91 80.03 184.398 79.9244C183.885 79.8187 183.42 79.6636 183.028 79.4677C182.637 79.2719 182.326 79.0392 182.115 78.7832C181.904 78.5271 181.796 78.2527 181.798 77.9758C181.798 76.8163 183.682 75.8814 186.012 75.8814V75.3943C183.14 75.3943 180.822 76.5532 180.822 77.9763C180.821 78.3172 180.955 78.6549 181.215 78.9699C181.476 79.285 181.858 79.5712 182.34 79.8123C182.822 80.0533 183.395 80.2445 184.025 80.3747C184.655 80.505 185.331 80.5718 186.012 80.5713C188.857 80.5713 191.176 79.4123 191.176 77.9763C191.174 77.2918 190.629 76.6357 189.661 76.1517C188.694 75.6677 187.381 75.3954 186.012 75.3943V75.8814Z" fill="black"/>
<path fill-rule="evenodd" clip-rule="evenodd" d="M184.973 77.0082H186.329C186.869 77.0082 187.66 77.0082 187.66 77.3698C187.66 77.7257 187.224 77.7984 186.606 77.7911H184.973V78.2067H186.065L187.303 79.3921H188.581L187.223 78.2067C188.212 78.1735 188.752 77.9623 188.752 77.456C188.752 77.166 188.594 76.8957 188.093 76.7317C187.671 76.6 187.053 76.5927 186.579 76.5927H183.877V79.3921H184.972V77.0082H184.973ZM72.3319 62.8141L77.5592 45.8258L82.7865 62.8141H72.3319ZM69.1963 72.3531H85.4002L87.4909 78.4946H113.364V54.1892L129.306 78.4946H142.635V33.2809H129.045V56.28L113.887 33.2809H99.7748V75.7507L85.1387 33.2809H69.9797L54.2987 78.4946H67.6275L69.1963 72.3531V72.3531Z" fill="black"/>
</g>
<defs>
<clipPath id="clip0_0_1">
<rect width="200" height="100" fill="white"/>
</clipPath>
</defs>
</svg>
