<svg width="200" height="100" viewBox="0 0 200 100" fill="none" xmlns="http://www.w3.org/2000/svg">
<g clip-path="url(#clip0_8_2)">
<path d="M96.9495 1.35005C89.9771 5.25005 81.0678 14.9 77.0973 23C75.3542 26.65 74.1921 42 75.7416 42H101.307L125.711 42.05L125.614 34.15C125.517 25.9 124.743 23.5 119.901 16.4C114.962 9.25005 104.116 4.57764e-05 100.726 4.57764e-05C100.048 4.57764e-05 98.3053 0.600046 96.9495 1.35005ZM1.56214 24.2C2.14318 28.9 4.46734 33.55 8.82514 38.75C10.1809 40.4 11.4398 41.8 11.5367 41.9C11.8272 42.15 70.028 42.3 70.028 42.05C70.028 41.5 64.1208 37.85 57.5357 34.35C44.2686 27.25 22.6733 21.2 6.7915 20.05L0.981104 19.65L1.56214 24.2V24.2ZM193.79 20C180.329 21.2 160.67 26.25 148.759 31.65C144.885 33.4 131.037 41.45 131.037 41.95C131.037 42.1 144.014 42.2 159.799 42.15L188.657 42.05L190.884 40C195.533 35.85 199.019 29.55 199.503 24.35C199.794 21.65 199.697 19.55 199.213 19.55C198.728 19.6 196.307 19.8 193.79 20V20ZM16.766 46.95C16.766 47.15 17.6376 47.95 18.7997 48.7L20.8333 50L100.726 49.9L180.619 49.75L183.137 48.1L185.558 46.5H101.114C54.3399 46.5 16.766 46.7 16.766 46.95V46.95ZM29.9363 55.6C30.9047 56.25 32.4541 57 33.2288 57.35C35.1656 58.15 163.672 58.3 167.062 57.45C168.321 57.15 170.064 56.4 171.032 55.7L172.775 54.5H28.0963L29.9363 55.6ZM48.7232 63.1C54.4368 65.6 78.5499 70.5 85.2319 70.5C86.2003 70.5 86.4908 69.6 86.4908 67.05C86.4908 61.6 88.1371 62 65.7671 62L46.3022 62.05L48.7232 63.1V63.1ZM90.5581 64.1C91.7202 65.3 94.4317 67.3 96.4653 68.65C100.92 71.4 100.92 71.4 107.215 66.8C114.09 61.75 114.478 62 100.436 62H88.3308L90.5581 64.1ZM115.155 63.55C114.865 64.4 114.574 66.35 114.574 67.85V70.6L118.254 70.3C129.004 69.3 145.66 65.75 152.342 63L154.763 62H115.833L115.155 63.55ZM67.026 76.35C67.026 76.6 67.026 78.2 67.1228 79.95L67.2197 83.15L64.5081 82.8C63.0555 82.6 61.0219 82.35 60.1503 82.2C58.6977 82 58.4072 82.25 58.4072 83.95C58.4072 85.65 58.7946 86.05 60.6345 86.25C63.7334 86.7 66.6386 88.95 66.6386 91.1C66.6386 93.05 64.2176 94.8 60.6345 95.55C58.7946 95.9 58.4072 96.35 58.4072 97.95V99.95L62.4745 99.2C65.186 98.7 66.7355 98.65 66.9291 99C67.1228 99.25 68.9628 99.5 71.0933 99.5H74.87V76H70.9964C68.8659 76 67.1228 76.15 67.026 76.35ZM119.416 79.55C119.416 83 119.32 83.1 117.286 82.8C110.217 81.8 110.701 81.7 110.701 83.9C110.701 85.45 111.185 86 112.444 86.2C118.642 87.25 120.966 91.8 116.608 94.2C115.349 94.9 113.509 95.6 112.444 95.8C111.185 96 110.701 96.55 110.701 98.05C110.701 99.1 110.894 100 111.185 100C111.476 100 113.315 99.65 115.349 99.25C117.673 98.75 119.029 98.65 119.223 99C119.416 99.25 121.256 99.5 123.387 99.5H127.164V76H119.416V79.55V79.55ZM9.2125 83.05C3.69262 84.45 -0.0841362 87.75 0.0127038 91C0.109544 94.8 4.07998 97.7 11.2461 99.25L14.8292 100V97.75C14.8292 96.5 14.345 95.5 13.8608 95.5C13.2798 95.5 11.7303 94.95 10.4714 94.25C8.63146 93.35 8.05042 92.5 8.05042 90.95C8.05042 89.2 8.63146 88.6 11.4398 87.2C14.0545 85.95 14.8292 85.15 14.8292 83.8C14.8292 82.8 14.5387 82 14.1513 82C13.6671 82 11.5367 82.5 9.2125 83.05V83.05ZM18.7028 83.95C18.7028 85.5 19.0902 86 20.2523 86C21.027 86 23.0606 86.65 24.6101 87.45C29.5489 90.05 27.6121 94.85 21.2207 95.7C19.2839 95.95 18.9933 96.25 19.2839 97.6C19.3807 98.5 19.5744 99.4 19.5744 99.6C19.6712 99.8 21.5112 99.6 23.7385 99.2C26.45 98.7 27.9995 98.65 28.1931 99C28.3868 99.25 30.0331 99.5 31.8731 99.5H35.1656V82H31.7762C29.9363 82 28.3868 82.25 28.3868 82.55C28.3868 82.9 27.4184 83 25.9658 82.8C24.6101 82.65 22.4796 82.35 21.1238 82.2C18.7997 81.9 18.7028 82 18.7028 83.95V83.95ZM48.7232 82.95C37.974 85.9 35.8435 93.15 44.6559 97.4C46.4959 98.25 49.4011 99.2 51.0474 99.4C53.9526 99.8 54.0494 99.75 54.3399 98.05C54.6305 96.8 54.1463 96.1 52.8873 95.65C48.9169 94.15 47.7548 93.45 47.1738 92.25C46.3022 90.35 47.5611 88.5 50.9505 86.8C53.4684 85.55 53.9526 84.9 53.7589 83.6C53.3715 81.75 53.1779 81.7 48.7232 82.95V82.95ZM79.6152 90C79.5183 94.4 79.4215 98.3 79.3247 98.6C79.2278 99 80.7773 99.3 83.3919 99.4L87.4592 99.55V82H79.712L79.6152 90V90ZM101.114 82.9C99.2737 83.35 96.4653 84.6 94.8191 85.65C92.2044 87.35 91.9139 87.9 91.9139 90.95C92.0107 93.2 92.5917 94.75 93.657 95.6C95.4969 97.05 101.307 99.2 104.697 99.75C106.634 100.05 106.827 99.9 106.827 98.15C106.827 96.6 106.246 96 103.438 94.85C99.2737 93.15 98.2085 90.8 100.533 88.5C101.404 87.6 102.954 86.75 104.019 86.65C105.471 86.45 105.859 85.95 105.859 84.2C105.859 83 105.568 82 105.181 82C104.697 82 102.954 82.4 101.114 82.9V82.9ZM138.591 83.45C131.909 85.65 129.197 89 130.844 92.9C132.393 96.3 136.848 98.55 144.401 99.75C146.338 100.05 146.532 99.9 146.532 98.05C146.532 96.3 146.144 95.9 143.53 95.25C140.043 94.3 137.816 91.85 138.494 89.85C138.978 88.65 143.723 86 145.466 86C145.854 86 146.144 85.1 146.144 84C146.144 81.5 144.788 81.4 138.591 83.45V83.45ZM150.405 84C150.405 85.7 150.793 86.1 152.826 86.5C156.022 87.1 158.346 89.9 157.475 92C157.184 92.95 155.635 94.1 153.698 94.9C150.986 96 150.405 96.6 150.405 98.15V100L153.988 99.25C156.312 98.75 157.765 98.65 157.959 99C158.152 99.25 159.992 99.5 162.123 99.5H165.9V82H163.091C161.542 82 159.605 82.35 158.83 82.75C157.475 83.4 156.99 83.4 154.569 82.75C150.696 81.7 150.405 81.75 150.405 84V84ZM177.036 82.7C170.742 84.1 168.611 88.5 173.163 90.7C175.68 91.9 181.491 93 185.461 93C188.657 93 191.369 94.1 190.884 95.3C190.691 96.05 189.625 96.3 185.461 96.4C180.91 96.55 180.329 96.45 179.264 95.3C178.392 94.2 177.52 94 173.937 94C169.192 94 168.902 94.4 171.71 96.75C174.131 98.8 178.489 99.75 185.268 99.75C194.564 99.75 200.181 97.65 199.987 94.3C199.794 91.15 195.823 89.45 186.817 88.75C178.198 88.05 176.165 85.55 184.106 85.35C187.301 85.3 188.463 85.5 189.722 86.4C190.787 87.2 192.143 87.5 195.048 87.5C199.406 87.5 199.697 87.05 196.792 84.9C193.015 82.2 183.815 81.2 177.036 82.7V82.7Z" fill="black"/>
</g>
<defs>
<clipPath id="clip0_8_2">
<rect width="200" height="100" fill="white"/>
</clipPath>
</defs>
</svg>
