<svg width="200" height="104" viewBox="0 0 200 104" fill="none" xmlns="http://www.w3.org/2000/svg">
<path fill-rule="evenodd" clip-rule="evenodd" d="M0 0H200V104H0V0Z" fill="white"/>
<path fill-rule="evenodd" clip-rule="evenodd" d="M83.5626 53.6866C83.5626 56.1021 79.5347 58.0596 74.5668 58.0596C69.5968 58.0596 65.5678 56.1016 65.5678 53.6866V31.5562C65.5678 29.1412 69.5968 27.1838 74.5668 27.1838C79.5347 27.1838 83.5626 29.1412 83.5626 31.5562V53.6866ZM11.9384 36.0263C6.96942 36.0263 2.94049 34.0683 2.94049 31.6533C2.94049 29.2383 6.96942 27.2803 11.9384 27.2803H50.7076C55.6755 27.2803 59.7045 29.2383 59.7045 31.6533C59.7045 34.0683 55.6755 36.0263 50.7076 36.0263H11.9384ZM48.124 47.333C53.092 47.333 57.1199 45.375 57.1199 42.9594C57.1199 40.5439 53.092 38.5864 48.124 38.5864H12.1376C7.16863 38.5864 3.14178 40.5439 3.14178 42.9594V53.6866C3.14178 56.1021 7.16967 58.0596 12.1376 58.0596C17.1055 58.0596 21.1355 56.1016 21.1355 53.6866V47.3081L48.124 47.333V47.333ZM182.72 58.0957C190.64 58.0957 197.059 54.9259 197.059 51.0774C197.059 49.6336 196.156 48.2928 194.61 47.1803L171.381 28.79C169.778 27.59 166.996 26.7969 163.833 26.7969C160.57 26.7969 157.711 27.6413 156.134 28.9054L131.028 48.5653H107.818V31.6533C107.818 29.2378 103.789 27.2803 98.8213 27.2803C93.8533 27.2803 89.8244 29.2383 89.8244 31.6533V53.6866C89.8244 56.1021 93.8533 58.0596 98.8213 58.0596H131.924C136 58.0828 140.074 56.9708 143.058 54.6999L163.833 38.5136L177.749 49.2883L158.266 49.3125C153.297 49.3125 149.268 51.27 149.268 53.6855C149.268 56.1011 153.297 58.0585 158.266 58.0585L182.72 58.0957V58.0957ZM17.0765 69.1121C17.4049 68.7937 17.8828 68.5237 18.4658 68.3271C19.033 68.1323 19.6984 68.0292 20.3781 68.0309C22.7645 68.0309 24.0439 68.7361 24.2151 70.147H16.567C16.567 69.7833 16.7372 69.4375 17.0765 69.1121ZM23.6122 72.6558C23.3103 72.876 22.8942 73.0627 22.3609 73.2132C21.8297 73.3648 21.2268 73.4409 20.5565 73.4409C19.2482 73.4409 18.2552 73.2385 17.5797 72.8339C16.9043 72.4303 16.566 71.853 16.566 71.1025H26.6036C26.6036 70.2597 26.3846 69.5249 25.9468 68.8979C25.5089 68.271 24.8469 67.7881 23.9619 67.4498C23.0779 67.1115 21.9884 66.9421 20.6935 66.9421C19.2326 66.9421 18.0082 67.1147 17.0225 67.4606C16.0337 67.8053 15.3022 68.2774 14.8239 68.8758C14.3445 69.4731 14.1059 70.1518 14.1059 70.9115C14.1059 71.6016 14.3518 72.2172 14.8426 72.7578C15.3334 73.2984 16.042 73.7209 16.9665 74.0268C17.892 74.3311 18.9846 74.4843 20.2442 74.4843C21.7996 74.4843 23.0436 74.3209 23.9743 73.9944C24.7043 73.7484 25.3039 73.4112 25.7185 73.0135C26.1242 72.6224 26.3566 72.2981 26.4158 72.0418H24.102C24.0781 72.2301 23.9142 72.4346 23.6122 72.6558V72.6558ZM46.6133 72.9564L50.2926 67.1487H52.8378C52.4352 67.7325 52.0606 68.2807 51.7099 68.7927C51.3592 69.3037 50.9909 69.8389 50.6039 70.3957C49.7291 71.6508 48.8284 72.901 47.902 74.146C47.2867 74.9662 46.8156 75.558 46.4888 75.9249C46.162 76.2918 45.8341 76.5686 45.5052 76.7585C45.1752 76.9474 44.8017 77.0682 44.3825 77.1222C43.9633 77.1772 43.3418 77.2042 42.5159 77.2042C42.3758 77.2042 42.0531 77.1675 41.5489 77.0936V75.9924C41.993 76.0744 42.4568 76.1159 42.9392 76.1159C43.3501 76.1159 43.6624 76.0814 43.8762 76.0118C44.0899 75.9422 44.2933 75.8008 44.4883 75.5915C44.6824 75.3805 44.9802 75.0055 45.3817 74.466L40.2851 67.1493H42.9133L46.5614 72.9569H46.6133V72.9564V72.9564ZM69.493 69.1121C69.8333 68.7862 70.2951 68.5251 70.8813 68.3271C71.4675 68.1291 72.1046 68.0309 72.7946 68.0309C75.181 68.0309 76.4604 68.7361 76.6316 70.147H68.9836C68.9836 69.7833 69.1527 69.4375 69.493 69.1121V69.1121ZM76.0287 72.6558C75.7268 72.876 75.3107 73.0627 74.7774 73.2132C74.2451 73.3648 73.6433 73.4409 72.9731 73.4409C71.6636 73.4409 70.6717 73.2385 69.9962 72.8339C69.3208 72.4303 68.9825 71.853 68.9825 71.1025H79.0201C79.0201 70.2597 78.8012 69.5249 78.3623 68.8979C77.9244 68.271 77.2635 67.7881 76.3794 67.4498C75.4944 67.1115 74.4049 66.9421 73.1111 66.9421C71.6491 66.9421 70.4248 67.1147 69.438 67.4606C68.4513 67.8053 67.7188 68.2774 67.2394 68.8758C66.7611 69.4731 66.5235 70.1518 66.5235 70.9115C66.5235 71.6016 66.7683 72.2172 67.2601 72.7578C67.7509 73.2984 68.4596 73.7209 69.3851 74.0268C70.3096 74.3311 71.4011 74.4843 72.6628 74.4843C74.2182 74.4843 75.4622 74.3209 76.3929 73.9944C77.1228 73.7486 77.7222 73.4113 78.1361 73.0135C78.5428 72.6224 78.7752 72.2981 78.8354 72.0418H76.5195C76.4936 72.2301 76.3296 72.4346 76.0287 72.6558V72.6558ZM101.796 68.7528L99.1211 74.2788H96.7285L92.7577 67.1487H95.2852L97.9092 72.7497H97.9601L100.616 67.1487H103.188L105.87 72.7497H105.92L108.713 67.1487H111.021L107.024 74.2788H104.638L101.855 68.7528H101.796V68.7528ZM127.731 69.1121C128.059 68.7935 128.537 68.5234 129.12 68.3271C129.687 68.1323 130.353 68.0292 131.033 68.0309C133.42 68.0309 134.699 68.7361 134.869 70.147H127.221C127.221 69.7833 127.391 69.4375 127.731 69.1121V69.1121ZM134.267 72.6558C133.965 72.876 133.55 73.0627 133.017 73.2132C132.484 73.3648 131.882 73.4409 131.211 73.4409C129.902 73.4409 128.911 73.2385 128.235 72.8339C127.56 72.4303 127.221 71.853 127.221 71.1025H137.261C137.261 70.2597 137.04 69.5249 136.604 68.8979C136.164 68.271 135.503 67.7881 134.62 67.4498C133.734 67.1115 132.646 66.9421 131.352 66.9421C129.891 66.9421 128.664 67.1147 127.677 67.4606C126.693 67.8053 125.959 68.2774 125.481 68.8758C125.003 69.4731 124.764 70.1518 124.764 70.9115C124.764 71.6016 125.009 72.2172 125.5 72.7578C125.99 73.2984 126.699 73.7209 127.626 74.0268C128.55 74.3311 129.642 74.4843 130.902 74.4843C132.459 74.4843 133.701 74.3209 134.633 73.9944C135.363 73.7484 135.962 73.4112 136.377 73.0135C136.782 72.6224 137.015 72.2981 137.076 72.0418H134.76C134.734 72.2301 134.569 72.4346 134.267 72.6558V72.6558ZM160.117 72.6569C159.714 72.9143 159.186 73.1166 158.527 73.2628C157.881 73.4089 157.184 73.4842 156.48 73.484C154.822 73.484 153.994 73.0718 153.994 72.2479C153.994 71.9728 154.147 71.7537 154.453 71.5913C154.759 71.4278 155.118 71.3129 155.529 71.2466C155.94 71.1802 156.407 71.1284 156.926 71.0906C158.239 71.0021 159.147 70.925 159.656 70.8608C160.162 70.7966 160.517 70.7227 160.721 70.6385V71.8115C160.721 72.1174 160.519 72.4001 160.117 72.6569V72.6569ZM155.208 68.3363C155.625 68.073 156.407 67.9424 157.553 67.9424C159.7 67.9424 160.774 68.3292 160.774 69.1024C160.774 69.6263 160.373 69.9063 159.571 69.9436L155.775 70.1901C154.108 70.2964 152.992 70.5748 152.431 71.0259C151.87 71.4759 151.59 71.9436 151.59 72.4276C151.59 72.829 151.772 73.1862 152.136 73.4991C152.501 73.8121 153.012 74.0543 153.665 74.2264C154.317 74.3986 155.061 74.4849 155.893 74.4849C157.085 74.4849 158.06 74.3754 158.824 74.1574C159.584 73.9395 160.269 73.657 160.85 73.3216C160.905 73.6632 161.097 73.9297 161.424 74.1223C161.752 74.3149 162.376 74.411 163.299 74.411C163.584 74.4104 163.868 74.3876 164.14 74.3435C164.251 74.3257 164.393 74.3047 164.563 74.2793V73.4058C164.213 73.4403 163.96 73.4587 163.802 73.4587C163.296 73.4587 163.04 73.3173 163.04 73.0362V68.9335C163.04 68.3875 162.726 67.9661 162.098 67.6688C161.47 67.3716 160.771 67.1768 159.997 67.0829C159.223 66.9901 158.542 66.9426 157.952 66.9426C156.179 66.9426 154.803 67.1336 153.826 67.5151C152.845 67.8955 152.332 68.497 152.282 69.3193H154.416C154.527 68.9265 154.79 68.599 155.208 68.3363V68.3363ZM181.923 70.1329V74.2788H179.607V67.1487H181.79V68.3309H181.847C182.868 67.4056 184.156 66.9421 185.708 66.9421C185.931 66.9421 186.13 66.9566 186.31 66.9852V68.2213H185.445C184.401 68.2213 183.554 68.4069 182.904 68.7776C182.249 69.1488 181.923 69.5999 181.923 70.1329V70.1329Z" fill="black"/>
</svg>
