<svg width="136" height="32" viewBox="0 0 52 12" fill="none" xmlns="http://www.w3.org/2000/svg">
<rect width="52" height="12" fill="none"/>
<path d="M2.54883 4.23047V9H0.574219V2.66016H2.41992L2.54883 4.23047ZM4.42383 2.61328L4.38867 4.44727C4.31055 4.43945 4.20508 4.42969 4.07227 4.41797C3.93945 4.40625 3.82812 4.40039 3.73828 4.40039C3.50781 4.40039 3.30859 4.42773 3.14062 4.48242C2.97656 4.5332 2.83984 4.61133 2.73047 4.7168C2.625 4.81836 2.54688 4.94727 2.49609 5.10352C2.44922 5.25977 2.42773 5.44141 2.43164 5.64844L2.07422 5.41406C2.07422 4.98828 2.11523 4.60156 2.19727 4.25391C2.2832 3.90234 2.4043 3.59961 2.56055 3.3457C2.7168 3.08789 2.90625 2.89062 3.12891 2.75391C3.35156 2.61328 3.60156 2.54297 3.87891 2.54297C3.97656 2.54297 4.07227 2.54883 4.16602 2.56055C4.26367 2.57227 4.34961 2.58984 4.42383 2.61328ZM4.64648 5.89453V5.77148C4.64648 5.30664 4.71289 4.87891 4.8457 4.48828C4.97852 4.09375 5.17383 3.75195 5.43164 3.46289C5.68945 3.17383 6.00781 2.94922 6.38672 2.78906C6.76562 2.625 7.20312 2.54297 7.69922 2.54297C8.19922 2.54297 8.63867 2.625 9.01758 2.78906C9.40039 2.94922 9.7207 3.17383 9.97852 3.46289C10.2363 3.75195 10.4316 4.09375 10.5645 4.48828C10.6973 4.87891 10.7637 5.30664 10.7637 5.77148V5.89453C10.7637 6.35547 10.6973 6.7832 10.5645 7.17773C10.4316 7.56836 10.2363 7.91016 9.97852 8.20312C9.7207 8.49219 9.40234 8.7168 9.02344 8.87695C8.64453 9.03711 8.20703 9.11719 7.71094 9.11719C7.21484 9.11719 6.77539 9.03711 6.39258 8.87695C6.00977 8.7168 5.68945 8.49219 5.43164 8.20312C5.17383 7.91016 4.97852 7.56836 4.8457 7.17773C4.71289 6.7832 4.64648 6.35547 4.64648 5.89453ZM6.62109 5.77148V5.89453C6.62109 6.13281 6.63867 6.35547 6.67383 6.5625C6.70898 6.76953 6.76758 6.95117 6.84961 7.10742C6.93164 7.25977 7.04297 7.37891 7.18359 7.46484C7.32422 7.55078 7.5 7.59375 7.71094 7.59375C7.91797 7.59375 8.08984 7.55078 8.22656 7.46484C8.36719 7.37891 8.47852 7.25977 8.56055 7.10742C8.64258 6.95117 8.70117 6.76953 8.73633 6.5625C8.77148 6.35547 8.78906 6.13281 8.78906 5.89453V5.77148C8.78906 5.54102 8.77148 5.32422 8.73633 5.12109C8.70117 4.91406 8.64258 4.73242 8.56055 4.57617C8.47852 4.41602 8.36719 4.29102 8.22656 4.20117C8.08594 4.11133 7.91016 4.06641 7.69922 4.06641C7.49219 4.06641 7.31836 4.11133 7.17773 4.20117C7.04102 4.29102 6.93164 4.41602 6.84961 4.57617C6.76758 4.73242 6.70898 4.91406 6.67383 5.12109C6.63867 5.32422 6.62109 5.54102 6.62109 5.77148ZM14.9648 7.21875C14.9648 7.10938 14.9277 7.01562 14.8535 6.9375C14.7832 6.85547 14.6582 6.78125 14.4785 6.71484C14.2988 6.64453 14.0469 6.57422 13.7227 6.50391C13.4141 6.4375 13.123 6.34961 12.8496 6.24023C12.5801 6.13086 12.3438 5.99805 12.1406 5.8418C11.9375 5.68555 11.7773 5.5 11.6602 5.28516C11.5469 5.07031 11.4902 4.82422 11.4902 4.54688C11.4902 4.27734 11.5469 4.02344 11.6602 3.78516C11.7773 3.54297 11.9473 3.33008 12.1699 3.14648C12.3965 2.95898 12.6719 2.8125 12.9961 2.70703C13.3203 2.59766 13.6895 2.54297 14.1035 2.54297C14.6738 2.54297 15.166 2.63086 15.5801 2.80664C15.9941 2.97852 16.3125 3.2207 16.5352 3.5332C16.7617 3.8418 16.875 4.19922 16.875 4.60547H14.9004C14.9004 4.44531 14.873 4.30859 14.8184 4.19531C14.7676 4.08203 14.6836 3.99609 14.5664 3.9375C14.4492 3.875 14.293 3.84375 14.0977 3.84375C13.9609 3.84375 13.8359 3.86914 13.7227 3.91992C13.6133 3.9707 13.5254 4.04102 13.459 4.13086C13.3926 4.2207 13.3594 4.32617 13.3594 4.44727C13.3594 4.5332 13.3789 4.61133 13.418 4.68164C13.4609 4.74805 13.5254 4.81055 13.6113 4.86914C13.6973 4.92383 13.8066 4.97461 13.9395 5.02148C14.0723 5.06445 14.2324 5.10352 14.4199 5.13867C14.8457 5.2168 15.2441 5.32812 15.6152 5.47266C15.9863 5.61719 16.2871 5.82227 16.5176 6.08789C16.752 6.35352 16.8691 6.71094 16.8691 7.16016C16.8691 7.44141 16.8047 7.70117 16.6758 7.93945C16.5469 8.17383 16.3613 8.38086 16.1191 8.56055C15.877 8.73633 15.5859 8.87305 15.2461 8.9707C14.9062 9.06836 14.5234 9.11719 14.0977 9.11719C13.4922 9.11719 12.9805 9.00977 12.5625 8.79492C12.1445 8.57617 11.8281 8.30273 11.6133 7.97461C11.4023 7.64258 11.2969 7.30664 11.2969 6.9668H13.1367C13.1445 7.16211 13.1914 7.32227 13.2773 7.44727C13.3672 7.57227 13.4863 7.66406 13.6348 7.72266C13.7832 7.78125 13.9551 7.81055 14.1504 7.81055C14.3301 7.81055 14.4785 7.78516 14.5957 7.73438C14.7168 7.68359 14.8086 7.61523 14.8711 7.5293C14.9336 7.43945 14.9648 7.33594 14.9648 7.21875ZM20.8652 9.11719C20.3496 9.11719 19.8887 9.03711 19.4824 8.87695C19.0762 8.71289 18.7324 8.48828 18.4512 8.20312C18.1738 7.91797 17.9609 7.58984 17.8125 7.21875C17.668 6.84766 17.5957 6.45508 17.5957 6.04102V5.81836C17.5957 5.35352 17.6602 4.92383 17.7891 4.5293C17.918 4.13086 18.1094 3.7832 18.3633 3.48633C18.6172 3.18945 18.9355 2.95898 19.3184 2.79492C19.7012 2.62695 20.1465 2.54297 20.6543 2.54297C21.1035 2.54297 21.5059 2.61523 21.8613 2.75977C22.2168 2.9043 22.5176 3.11133 22.7637 3.38086C23.0137 3.65039 23.2031 3.97656 23.332 4.35938C23.4648 4.74219 23.5312 5.17188 23.5312 5.64844V6.45117H18.3516V5.21484H21.6035V5.0625C21.6074 4.85156 21.5703 4.67188 21.4922 4.52344C21.418 4.375 21.3086 4.26172 21.1641 4.18359C21.0195 4.10547 20.8438 4.06641 20.6367 4.06641C20.4219 4.06641 20.2441 4.11328 20.1035 4.20703C19.9668 4.30078 19.8594 4.42969 19.7812 4.59375C19.707 4.75391 19.6543 4.93945 19.623 5.15039C19.5918 5.36133 19.5762 5.58398 19.5762 5.81836V6.04102C19.5762 6.27539 19.6074 6.48828 19.6699 6.67969C19.7363 6.87109 19.8301 7.03516 19.9512 7.17188C20.0762 7.30469 20.2246 7.4082 20.3965 7.48242C20.5723 7.55664 20.7715 7.59375 20.9941 7.59375C21.2637 7.59375 21.5293 7.54297 21.791 7.44141C22.0527 7.33984 22.2773 7.17188 22.4648 6.9375L23.3613 8.00391C23.2324 8.1875 23.0488 8.36523 22.8105 8.53711C22.5762 8.70898 22.2949 8.84961 21.9668 8.95898C21.6387 9.06445 21.2715 9.11719 20.8652 9.11719ZM28.8223 6.73242C28.8223 6.59961 28.8027 6.48047 28.7637 6.375C28.7246 6.26562 28.6523 6.16406 28.5469 6.07031C28.4414 5.97656 28.2891 5.88281 28.0898 5.78906C27.8945 5.69141 27.6367 5.58984 27.3164 5.48438C26.9414 5.35938 26.5801 5.21875 26.2324 5.0625C25.8848 4.90234 25.5742 4.7168 25.3008 4.50586C25.0273 4.29102 24.8105 4.04102 24.6504 3.75586C24.4902 3.4668 24.4102 3.13086 24.4102 2.74805C24.4102 2.38086 24.4922 2.05078 24.6562 1.75781C24.8203 1.46094 25.0488 1.20898 25.3418 1.00195C25.6387 0.791016 25.9863 0.630859 26.3848 0.521484C26.7832 0.408203 27.2188 0.351562 27.6914 0.351562C28.3164 0.351562 28.8672 0.460938 29.3438 0.679688C29.8242 0.894531 30.1992 1.20117 30.4688 1.59961C30.7422 1.99414 30.8789 2.46094 30.8789 3H28.834C28.834 2.78516 28.7891 2.5957 28.6992 2.43164C28.6133 2.26758 28.4824 2.13867 28.3066 2.04492C28.1309 1.95117 27.9102 1.9043 27.6445 1.9043C27.3867 1.9043 27.1699 1.94336 26.9941 2.02148C26.8184 2.09961 26.6855 2.20508 26.5957 2.33789C26.5059 2.4668 26.4609 2.60938 26.4609 2.76562C26.4609 2.89453 26.4961 3.01172 26.5664 3.11719C26.6406 3.21875 26.7441 3.31445 26.877 3.4043C27.0137 3.49414 27.1777 3.58008 27.3691 3.66211C27.5645 3.74414 27.7832 3.82422 28.0254 3.90234C28.4785 4.04688 28.8809 4.20898 29.2324 4.38867C29.5879 4.56445 29.8867 4.76562 30.1289 4.99219C30.375 5.21484 30.5605 5.46875 30.6855 5.75391C30.8145 6.03906 30.8789 6.36133 30.8789 6.7207C30.8789 7.10352 30.8047 7.44336 30.6562 7.74023C30.5078 8.03711 30.2949 8.28906 30.0176 8.49609C29.7402 8.69922 29.4082 8.85352 29.0215 8.95898C28.6348 9.06445 28.2031 9.11719 27.7266 9.11719C27.2891 9.11719 26.8574 9.0625 26.4316 8.95312C26.0098 8.83984 25.627 8.66797 25.2832 8.4375C24.9395 8.20312 24.6641 7.9043 24.457 7.54102C24.2539 7.17383 24.1523 6.73828 24.1523 6.23438H26.2148C26.2148 6.48438 26.248 6.69531 26.3145 6.86719C26.3809 7.03906 26.4785 7.17773 26.6074 7.2832C26.7363 7.38477 26.8945 7.45898 27.082 7.50586C27.2695 7.54883 27.4844 7.57031 27.7266 7.57031C27.9883 7.57031 28.1992 7.5332 28.3594 7.45898C28.5195 7.38086 28.6367 7.2793 28.7109 7.1543C28.7852 7.02539 28.8223 6.88477 28.8223 6.73242ZM35.1855 2.66016V4.03125H31.3652V2.66016H35.1855ZM32.168 1.08398H34.1426V6.93164C34.1426 7.09961 34.1621 7.23047 34.2012 7.32422C34.2402 7.41406 34.3066 7.47852 34.4004 7.51758C34.498 7.55273 34.627 7.57031 34.7871 7.57031C34.9004 7.57031 34.9941 7.56836 35.0684 7.56445C35.1426 7.55664 35.2129 7.54688 35.2793 7.53516V8.94727C35.1113 9.00195 34.9355 9.04297 34.752 9.07031C34.5684 9.10156 34.373 9.11719 34.166 9.11719C33.7441 9.11719 33.3828 9.05078 33.082 8.91797C32.7852 8.78516 32.5586 8.57617 32.4023 8.29102C32.2461 8.00586 32.168 7.63477 32.168 7.17773V1.08398ZM37.916 8.25586L39.5566 2.66016H41.6777L39.1289 9.94336C39.0742 10.1035 39.002 10.2754 38.9121 10.459C38.8223 10.6465 38.6992 10.8242 38.543 10.9922C38.3867 11.1602 38.1855 11.2969 37.9395 11.4023C37.6973 11.5078 37.3965 11.5605 37.0371 11.5605C36.8457 11.5605 36.7051 11.5508 36.6152 11.5312C36.5293 11.5156 36.3965 11.4863 36.2168 11.4434V10.0312C36.2676 10.0312 36.3105 10.0312 36.3457 10.0312C36.3848 10.0312 36.4277 10.0312 36.4746 10.0312C36.6855 10.0312 36.8535 10.0098 36.9785 9.9668C37.1074 9.92383 37.2051 9.86133 37.2715 9.7793C37.3418 9.69727 37.3965 9.59766 37.4355 9.48047L37.916 8.25586ZM37.5 2.66016L38.748 7.0957L38.9648 9.1875H37.6406L35.3848 2.66016H37.5ZM44.2793 0V9H42.2988V0H44.2793ZM48.5684 9.11719C48.0527 9.11719 47.5918 9.03711 47.1855 8.87695C46.7793 8.71289 46.4355 8.48828 46.1543 8.20312C45.877 7.91797 45.6641 7.58984 45.5156 7.21875C45.3711 6.84766 45.2988 6.45508 45.2988 6.04102V5.81836C45.2988 5.35352 45.3633 4.92383 45.4922 4.5293C45.6211 4.13086 45.8125 3.7832 46.0664 3.48633C46.3203 3.18945 46.6387 2.95898 47.0215 2.79492C47.4043 2.62695 47.8496 2.54297 48.3574 2.54297C48.8066 2.54297 49.209 2.61523 49.5645 2.75977C49.9199 2.9043 50.2207 3.11133 50.4668 3.38086C50.7168 3.65039 50.9062 3.97656 51.0352 4.35938C51.168 4.74219 51.2344 5.17188 51.2344 5.64844V6.45117H46.0547V5.21484H49.3066V5.0625C49.3105 4.85156 49.2734 4.67188 49.1953 4.52344C49.1211 4.375 49.0117 4.26172 48.8672 4.18359C48.7227 4.10547 48.5469 4.06641 48.3398 4.06641C48.125 4.06641 47.9473 4.11328 47.8066 4.20703C47.6699 4.30078 47.5625 4.42969 47.4844 4.59375C47.4102 4.75391 47.3574 4.93945 47.3262 5.15039C47.2949 5.36133 47.2793 5.58398 47.2793 5.81836V6.04102C47.2793 6.27539 47.3105 6.48828 47.373 6.67969C47.4395 6.87109 47.5332 7.03516 47.6543 7.17188C47.7793 7.30469 47.9277 7.4082 48.0996 7.48242C48.2754 7.55664 48.4746 7.59375 48.6973 7.59375C48.9668 7.59375 49.2324 7.54297 49.4941 7.44141C49.7559 7.33984 49.9805 7.17188 50.168 6.9375L51.0645 8.00391C50.9355 8.1875 50.752 8.36523 50.5137 8.53711C50.2793 8.70898 49.998 8.84961 49.6699 8.95898C49.3418 9.06445 48.9746 9.11719 48.5684 9.11719Z" fill="#fff"/>
</svg>
